<svg xmlns="http://www.w3.org/2000/svg" xmlns:xlink="http://www.w3.org/1999/xlink" width="648" height="479" contentScriptType="application/ecmascript" contentStyleType="text/css" preserveAspectRatio="none" style="width:648px;height:479px" version="1.1" viewBox="0 0 648 479" zoomAndPan="magnify"><defs><filter id="ft7ro6ildtibl" width="300%" height="300%" x="-1" y="-1"><feGaussianBlur result="blurOut" stdDeviation="2"/><feColorMatrix in="blurOut" result="blurOut2" type="matrix" values="0 0 0 0 0 0 0 0 0 0 0 0 0 0 0 0 0 0 .4 0"/><feOffset dx="4" dy="4" in="blurOut2" result="blurOut3"/><feBlend in="SourceGraphic" in2="blurOut3" mode="normal"/></filter></defs><g><line style="stroke:#a80036;stroke-width:1;stroke-dasharray:5,5" x1="32" x2="32" y1="86.297" y2="392.625"/><line style="stroke:#a80036;stroke-width:1;stroke-dasharray:5,5" x1="224" x2="224" y1="86.297" y2="392.625"/><line style="stroke:#a80036;stroke-width:1;stroke-dasharray:5,5" x1="445" x2="445" y1="86.297" y2="392.625"/><line style="stroke:#a80036;stroke-width:1;stroke-dasharray:5,5" x1="571" x2="571" y1="86.297" y2="392.625"/><text x="8" y="82.995" fill="#000" font-family="sans-serif" font-size="14" lengthAdjust="spacingAndGlyphs" textLength="43">Admin</text><ellipse cx="32.5" cy="13" fill="#FEFECE" filter="url(#ft7ro6ildtibl)" rx="8" ry="8" style="stroke:#a80036;stroke-width:2"/><path fill="none" d="M32.5,21 L32.5,48 M19.5,29 L45.5,29 M32.5,48 L19.5,63 M32.5,48 L45.5,63" filter="url(#ft7ro6ildtibl)" style="stroke:#a80036;stroke-width:2"/><text x="8" y="404.62" fill="#000" font-family="sans-serif" font-size="14" lengthAdjust="spacingAndGlyphs" textLength="43">Admin</text><ellipse cx="32.5" cy="417.922" fill="#FEFECE" filter="url(#ft7ro6ildtibl)" rx="8" ry="8" style="stroke:#a80036;stroke-width:2"/><path fill="none" d="M32.5,425.9219 L32.5,452.9219 M19.5,433.9219 L45.5,433.9219 M32.5,452.9219 L19.5,467.9219 M32.5,452.9219 L45.5,467.9219" filter="url(#ft7ro6ildtibl)" style="stroke:#a80036;stroke-width:2"/><rect width="95" height="30.297" x="175" y="51" fill="#FEFECE" filter="url(#ft7ro6ildtibl)" style="stroke:#a80036;stroke-width:1.5"/><text x="182" y="70.995" fill="#000" font-family="sans-serif" font-size="14" lengthAdjust="spacingAndGlyphs" textLength="81">Kubernetes</text><rect width="95" height="30.297" x="175" y="391.625" fill="#FEFECE" filter="url(#ft7ro6ildtibl)" style="stroke:#a80036;stroke-width:1.5"/><text x="182" y="411.62" fill="#000" font-family="sans-serif" font-size="14" lengthAdjust="spacingAndGlyphs" textLength="81">Kubernetes</text><rect width="121" height="30.297" x="383" y="51" fill="#FEFECE" filter="url(#ft7ro6ildtibl)" style="stroke:#a80036;stroke-width:1.5"/><text x="390" y="70.995" fill="#000" font-family="sans-serif" font-size="14" lengthAdjust="spacingAndGlyphs" textLength="107">HarborOperator</text><rect width="121" height="30.297" x="383" y="391.625" fill="#FEFECE" filter="url(#ft7ro6ildtibl)" style="stroke:#a80036;stroke-width:1.5"/><text x="390" y="411.62" fill="#000" font-family="sans-serif" font-size="14" lengthAdjust="spacingAndGlyphs" textLength="107">HarborOperator</text><rect width="103" height="30.297" x="518" y="51" fill="#FEFECE" filter="url(#ft7ro6ildtibl)" style="stroke:#a80036;stroke-width:1.5"/><text x="525" y="70.995" fill="#000" font-family="sans-serif" font-size="14" lengthAdjust="spacingAndGlyphs" textLength="89">CertManager</text><rect width="103" height="30.297" x="518" y="391.625" fill="#FEFECE" filter="url(#ft7ro6ildtibl)" style="stroke:#a80036;stroke-width:1.5"/><text x="525" y="411.62" fill="#000" font-family="sans-serif" font-size="14" lengthAdjust="spacingAndGlyphs" textLength="89">CertManager</text><polygon fill="#A80036" points="212.5 128.563 222.5 132.563 212.5 136.563 216.5 132.563" style="stroke:#a80036;stroke-width:1"/><line style="stroke:#a80036;stroke-width:1" x1="32.5" x2="218.5" y1="132.563" y2="132.563"/><text x="39.5" y="119.93" fill="#000" font-family="sans-serif" font-size="13" font-weight="bold" lengthAdjust="spacingAndGlyphs" textLength="9">1</text><text x="52.5" y="112.364" fill="#000" font-family="sans-serif" font-size="13" lengthAdjust="spacingAndGlyphs" textLength="98">updates harbor</text><text x="52.5" y="127.497" fill="#000" font-family="sans-serif" font-size="13" lengthAdjust="spacingAndGlyphs" textLength="155">spec.certificateIssuerRef</text><polygon fill="#A80036" points="433.5 157.695 443.5 161.695 433.5 165.695 437.5 161.695" style="stroke:#a80036;stroke-width:1"/><line style="stroke:#a80036;stroke-width:1" x1="224.5" x2="439.5" y1="161.695" y2="161.695"/><text x="231.5" y="156.629" fill="#000" font-family="sans-serif" font-size="13" font-weight="bold" lengthAdjust="spacingAndGlyphs" textLength="9">2</text><text x="244.5" y="156.629" fill="#000" font-family="sans-serif" font-size="13" lengthAdjust="spacingAndGlyphs" textLength="49">triggers</text><polygon fill="#A80036" points="235.5 186.828 225.5 190.828 235.5 194.828 231.5 190.828" style="stroke:#a80036;stroke-width:1"/><line style="stroke:#a80036;stroke-width:1" x1="229.5" x2="444.5" y1="190.828" y2="190.828"/><text x="241.5" y="185.762" fill="#000" font-family="sans-serif" font-size="13" font-weight="bold" lengthAdjust="spacingAndGlyphs" textLength="9">3</text><text x="254.5" y="185.762" fill="#000" font-family="sans-serif" font-size="13" lengthAdjust="spacingAndGlyphs" textLength="172">updates registry-certificate</text><polygon fill="#A80036" points="559.5 215.961 569.5 219.961 559.5 223.961 563.5 219.961" style="stroke:#a80036;stroke-width:1"/><line style="stroke:#a80036;stroke-width:1" x1="224.5" x2="565.5" y1="219.961" y2="219.961"/><text x="231.5" y="214.895" fill="#000" font-family="sans-serif" font-size="13" font-weight="bold" lengthAdjust="spacingAndGlyphs" textLength="9">4</text><text x="244.5" y="214.895" fill="#000" font-family="sans-serif" font-size="13" lengthAdjust="spacingAndGlyphs" textLength="49">triggers</text><polygon fill="#A80036" points="235.5 245.094 225.5 249.094 235.5 253.094 231.5 249.094" style="stroke:#a80036;stroke-width:1"/><line style="stroke:#a80036;stroke-width:1" x1="229.5" x2="570.5" y1="249.094" y2="249.094"/><text x="241.5" y="244.028" fill="#000" font-family="sans-serif" font-size="13" font-weight="bold" lengthAdjust="spacingAndGlyphs" textLength="9">5</text><text x="254.5" y="244.028" fill="#000" font-family="sans-serif" font-size="13" lengthAdjust="spacingAndGlyphs" textLength="96">updates secret</text><line style="stroke:#a80036;stroke-width:2" x1="427.5" x2="437.5" y1="285.793" y2="295.793"/><line style="stroke:#a80036;stroke-width:2" x1="427.5" x2="437.5" y1="295.793" y2="285.793"/><line style="stroke:#a80036;stroke-width:1" x1="224.5" x2="432.5" y1="290.793" y2="290.793"/><text x="231.5" y="285.727" fill="#000" font-family="sans-serif" font-size="13" font-weight="bold" lengthAdjust="spacingAndGlyphs" textLength="9">6</text><text x="244.5" y="285.727" fill="#000" font-family="sans-serif" font-size="13" lengthAdjust="spacingAndGlyphs" textLength="169">triggers registry-certificate</text><path fill="#FBFB77" d="M450,262.0938 L450,302.0938 L636,302.0938 L636,272.0938 L626,262.0938 L450,262.0938" filter="url(#ft7ro6ildtibl)" style="stroke:#a80036;stroke-width:1"/><path fill="#FBFB77" d="M626,262.0938 L626,272.0938 L636,272.0938 L626,262.0938" style="stroke:#a80036;stroke-width:1"/><text x="456" y="279.161" fill="#000" font-family="sans-serif" font-size="13" lengthAdjust="spacingAndGlyphs" textLength="165">Harbor Operator does not</text><text x="456" y="294.293" fill="#000" font-family="sans-serif" font-size="13" lengthAdjust="spacingAndGlyphs" textLength="165">watch for certificate event</text><polygon fill="#A80036" points="235.5 328.492 225.5 332.492 235.5 336.492 231.5 332.492" style="stroke:#a80036;stroke-width:1"/><line style="stroke:#a80036;stroke-width:1" x1="229.5" x2="444.5" y1="332.492" y2="332.492"/><text x="241.5" y="327.426" fill="#000" font-family="sans-serif" font-size="13" font-weight="bold" lengthAdjust="spacingAndGlyphs" textLength="9">7</text><text x="254.5" y="327.426" fill="#000" font-family="sans-serif" font-size="13" lengthAdjust="spacingAndGlyphs" textLength="184">updates registry deployment</text><line style="stroke:#a80036;stroke-width:1" x1="224.5" x2="266.5" y1="361.625" y2="361.625"/><line style="stroke:#a80036;stroke-width:1" x1="266.5" x2="266.5" y1="361.625" y2="374.625"/><line style="stroke:#a80036;stroke-width:1" x1="225.5" x2="266.5" y1="374.625" y2="374.625"/><polygon fill="#A80036" points="235.5 370.625 225.5 374.625 235.5 378.625 231.5 374.625" style="stroke:#a80036;stroke-width:1"/><text x="231.5" y="356.559" fill="#000" font-family="sans-serif" font-size="13" font-weight="bold" lengthAdjust="spacingAndGlyphs" textLength="9">8</text><text x="244.5" y="356.559" fill="#000" font-family="sans-serif" font-size="13" lengthAdjust="spacingAndGlyphs" textLength="132">updates registry pod</text></g></svg>