<svg xmlns="http://www.w3.org/2000/svg" xmlns:xlink="http://www.w3.org/1999/xlink" width="618" height="396" contentScriptType="application/ecmascript" contentStyleType="text/css" preserveAspectRatio="none" style="width:618px;height:396px" version="1.1" viewBox="0 0 618 396" zoomAndPan="magnify"><defs><filter id="fb97cas6tfs1b" width="300%" height="300%" x="-1" y="-1"><feGaussianBlur result="blurOut" stdDeviation="2"/><feColorMatrix in="blurOut" result="blurOut2" type="matrix" values="0 0 0 0 0 0 0 0 0 0 0 0 0 0 0 0 0 0 .4 0"/><feOffset dx="4" dy="4" in="blurOut2" result="blurOut3"/><feBlend in="SourceGraphic" in2="blurOut3" mode="normal"/></filter></defs><g><line style="stroke:#a80036;stroke-width:1;stroke-dasharray:5,5" x1="32" x2="32" y1="86.297" y2="309.227"/><line style="stroke:#a80036;stroke-width:1;stroke-dasharray:5,5" x1="199" x2="199" y1="86.297" y2="309.227"/><line style="stroke:#a80036;stroke-width:1;stroke-dasharray:5,5" x1="338" x2="338" y1="86.297" y2="309.227"/><line style="stroke:#a80036;stroke-width:1;stroke-dasharray:5,5" x1="479" x2="479" y1="86.297" y2="309.227"/><text x="8" y="82.995" fill="#000" font-family="sans-serif" font-size="14" lengthAdjust="spacingAndGlyphs" textLength="43">Admin</text><ellipse cx="32.5" cy="13" fill="#FEFECE" filter="url(#fb97cas6tfs1b)" rx="8" ry="8" style="stroke:#a80036;stroke-width:2"/><path fill="none" d="M32.5,21 L32.5,48 M19.5,29 L45.5,29 M32.5,48 L19.5,63 M32.5,48 L45.5,63" filter="url(#fb97cas6tfs1b)" style="stroke:#a80036;stroke-width:2"/><text x="8" y="321.222" fill="#000" font-family="sans-serif" font-size="14" lengthAdjust="spacingAndGlyphs" textLength="43">Admin</text><ellipse cx="32.5" cy="334.523" fill="#FEFECE" filter="url(#fb97cas6tfs1b)" rx="8" ry="8" style="stroke:#a80036;stroke-width:2"/><path fill="none" d="M32.5,342.5234 L32.5,369.5234 M19.5,350.5234 L45.5,350.5234 M32.5,369.5234 L19.5,384.5234 M32.5,369.5234 L45.5,384.5234" filter="url(#fb97cas6tfs1b)" style="stroke:#a80036;stroke-width:2"/><rect width="95" height="30.297" x="150" y="51" fill="#FEFECE" filter="url(#fb97cas6tfs1b)" style="stroke:#a80036;stroke-width:1.5"/><text x="157" y="70.995" fill="#000" font-family="sans-serif" font-size="14" lengthAdjust="spacingAndGlyphs" textLength="81">Kubernetes</text><rect width="95" height="30.297" x="150" y="308.227" fill="#FEFECE" filter="url(#fb97cas6tfs1b)" style="stroke:#a80036;stroke-width:1.5"/><text x="157" y="328.222" fill="#000" font-family="sans-serif" font-size="14" lengthAdjust="spacingAndGlyphs" textLength="81">Kubernetes</text><rect width="121" height="30.297" x="276" y="51" fill="#FEFECE" filter="url(#fb97cas6tfs1b)" style="stroke:#a80036;stroke-width:1.5"/><text x="283" y="70.995" fill="#000" font-family="sans-serif" font-size="14" lengthAdjust="spacingAndGlyphs" textLength="107">HarborOperator</text><rect width="121" height="30.297" x="276" y="308.227" fill="#FEFECE" filter="url(#fb97cas6tfs1b)" style="stroke:#a80036;stroke-width:1.5"/><text x="283" y="328.222" fill="#000" font-family="sans-serif" font-size="14" lengthAdjust="spacingAndGlyphs" textLength="107">HarborOperator</text><rect width="132" height="30.297" x="411" y="51" fill="#FEFECE" filter="url(#fb97cas6tfs1b)" style="stroke:#a80036;stroke-width:1.5"/><text x="418" y="70.995" fill="#000" font-family="sans-serif" font-size="14" lengthAdjust="spacingAndGlyphs" textLength="118">IngressController</text><rect width="132" height="30.297" x="411" y="308.227" fill="#FEFECE" filter="url(#fb97cas6tfs1b)" style="stroke:#a80036;stroke-width:1.5"/><text x="418" y="328.222" fill="#000" font-family="sans-serif" font-size="14" lengthAdjust="spacingAndGlyphs" textLength="118">IngressController</text><polygon fill="#A80036" points="187.5 128.563 197.5 132.563 187.5 136.563 191.5 132.563" style="stroke:#a80036;stroke-width:1"/><line style="stroke:#a80036;stroke-width:1" x1="32.5" x2="193.5" y1="132.563" y2="132.563"/><text x="39.5" y="119.93" fill="#000" font-family="sans-serif" font-size="13" font-weight="bold" lengthAdjust="spacingAndGlyphs" textLength="9">1</text><text x="52.5" y="112.364" fill="#000" font-family="sans-serif" font-size="13" lengthAdjust="spacingAndGlyphs" textLength="100">Updates harbor</text><text x="52.5" y="127.497" fill="#000" font-family="sans-serif" font-size="13" lengthAdjust="spacingAndGlyphs" textLength="130">spec.tlsSecretName</text><polygon fill="#A80036" points="326.5 157.695 336.5 161.695 326.5 165.695 330.5 161.695" style="stroke:#a80036;stroke-width:1"/><line style="stroke:#a80036;stroke-width:1" x1="199.5" x2="332.5" y1="161.695" y2="161.695"/><text x="206.5" y="156.629" fill="#000" font-family="sans-serif" font-size="13" font-weight="bold" lengthAdjust="spacingAndGlyphs" textLength="9">2</text><text x="219.5" y="156.629" fill="#000" font-family="sans-serif" font-size="13" lengthAdjust="spacingAndGlyphs" textLength="49">triggers</text><polygon fill="#A80036" points="210.5 186.828 200.5 190.828 210.5 194.828 206.5 190.828" style="stroke:#a80036;stroke-width:1"/><line style="stroke:#a80036;stroke-width:1" x1="204.5" x2="337.5" y1="190.828" y2="190.828"/><text x="216.5" y="185.762" fill="#000" font-family="sans-serif" font-size="13" font-weight="bold" lengthAdjust="spacingAndGlyphs" textLength="9">3</text><text x="229.5" y="185.762" fill="#000" font-family="sans-serif" font-size="13" lengthAdjust="spacingAndGlyphs" textLength="102">updates ingress</text><polygon fill="#A80036" points="467 215.961 477 219.961 467 223.961 471 219.961" style="stroke:#a80036;stroke-width:1"/><line style="stroke:#a80036;stroke-width:1" x1="199.5" x2="473" y1="219.961" y2="219.961"/><text x="206.5" y="214.895" fill="#000" font-family="sans-serif" font-size="13" font-weight="bold" lengthAdjust="spacingAndGlyphs" textLength="9">4</text><text x="219.5" y="214.895" fill="#000" font-family="sans-serif" font-size="13" lengthAdjust="spacingAndGlyphs" textLength="49">triggers</text><polygon fill="#A80036" points="210.5 245.094 200.5 249.094 210.5 253.094 206.5 249.094" style="stroke:#a80036;stroke-width:1"/><line style="stroke:#a80036;stroke-width:1" x1="204.5" x2="478" y1="249.094" y2="249.094"/><text x="216.5" y="244.028" fill="#000" font-family="sans-serif" font-size="13" font-weight="bold" lengthAdjust="spacingAndGlyphs" textLength="9">5</text><text x="229.5" y="244.028" fill="#000" font-family="sans-serif" font-size="13" lengthAdjust="spacingAndGlyphs" textLength="139">gets certificate secret</text><line style="stroke:#a80036;stroke-width:1" x1="479" x2="521" y1="278.227" y2="278.227"/><line style="stroke:#a80036;stroke-width:1" x1="521" x2="521" y1="278.227" y2="291.227"/><line style="stroke:#a80036;stroke-width:1" x1="480" x2="521" y1="291.227" y2="291.227"/><polygon fill="#A80036" points="490 287.227 480 291.227 490 295.227 486 291.227" style="stroke:#a80036;stroke-width:1"/><text x="486" y="273.161" fill="#000" font-family="sans-serif" font-size="13" font-weight="bold" lengthAdjust="spacingAndGlyphs" textLength="9">6</text><text x="499" y="273.161" fill="#000" font-family="sans-serif" font-size="13" lengthAdjust="spacingAndGlyphs" textLength="107">reload certificate</text></g></svg>