<svg xmlns="http://www.w3.org/2000/svg" xmlns:xlink="http://www.w3.org/1999/xlink" width="464" height="339" contentScriptType="application/ecmascript" contentStyleType="text/css" preserveAspectRatio="none" style="width:464px;height:339px" version="1.1" viewBox="0 0 464 339" zoomAndPan="magnify"><defs><filter id="f1w9jdsrclng5o" width="300%" height="300%" x="-1" y="-1"><feGaussianBlur result="blurOut" stdDeviation="2"/><feColorMatrix in="blurOut" result="blurOut2" type="matrix" values="0 0 0 0 0 0 0 0 0 0 0 0 0 0 0 0 0 0 .4 0"/><feOffset dx="4" dy="4" in="blurOut2" result="blurOut3"/><feBlend in="SourceGraphic" in2="blurOut3" mode="normal"/></filter></defs><g><line style="stroke:#a80036;stroke-width:1;stroke-dasharray:5,5" x1="32" x2="32" y1="86.297" y2="251.961"/><line style="stroke:#a80036;stroke-width:1;stroke-dasharray:5,5" x1="106" x2="106" y1="86.297" y2="251.961"/><line style="stroke:#a80036;stroke-width:1;stroke-dasharray:5,5" x1="253" x2="253" y1="86.297" y2="251.961"/><line style="stroke:#a80036;stroke-width:1;stroke-dasharray:5,5" x1="403" x2="403" y1="86.297" y2="251.961"/><text x="8" y="82.995" fill="#000" font-family="sans-serif" font-size="14" lengthAdjust="spacingAndGlyphs" textLength="43">Admin</text><ellipse cx="32.5" cy="13" fill="#FEFECE" filter="url(#f1w9jdsrclng5o)" rx="8" ry="8" style="stroke:#a80036;stroke-width:2"/><path fill="none" d="M32.5,21 L32.5,48 M19.5,29 L45.5,29 M32.5,48 L19.5,63 M32.5,48 L45.5,63" filter="url(#f1w9jdsrclng5o)" style="stroke:#a80036;stroke-width:2"/><text x="8" y="263.956" fill="#000" font-family="sans-serif" font-size="14" lengthAdjust="spacingAndGlyphs" textLength="43">Admin</text><ellipse cx="32.5" cy="277.258" fill="#FEFECE" filter="url(#f1w9jdsrclng5o)" rx="8" ry="8" style="stroke:#a80036;stroke-width:2"/><path fill="none" d="M32.5,285.2578 L32.5,312.2578 M19.5,293.2578 L45.5,293.2578 M32.5,312.2578 L19.5,327.2578 M32.5,312.2578 L45.5,327.2578" filter="url(#f1w9jdsrclng5o)" style="stroke:#a80036;stroke-width:2"/><text x="67" y="82.995" fill="#000" font-family="sans-serif" font-size="14" lengthAdjust="spacingAndGlyphs" textLength="73">Installation</text><path fill="none" d="M86,42 L86,66 M86,54 L103,54" filter="url(#f1w9jdsrclng5o)" style="stroke:#a80036;stroke-width:2"/><ellipse cx="115" cy="54" fill="#FEFECE" filter="url(#f1w9jdsrclng5o)" rx="12" ry="12" style="stroke:#a80036;stroke-width:2"/><text x="67" y="263.956" fill="#000" font-family="sans-serif" font-size="14" lengthAdjust="spacingAndGlyphs" textLength="73">Installation</text><path fill="none" d="M86,271.2578 L86,295.2578 M86,283.2578 L103,283.2578" filter="url(#f1w9jdsrclng5o)" style="stroke:#a80036;stroke-width:2"/><ellipse cx="115" cy="283.258" fill="#FEFECE" filter="url(#f1w9jdsrclng5o)" rx="12" ry="12" style="stroke:#a80036;stroke-width:2"/><rect width="95" height="30.297" x="204" y="51" fill="#FEFECE" filter="url(#f1w9jdsrclng5o)" style="stroke:#a80036;stroke-width:1.5"/><text x="211" y="70.995" fill="#000" font-family="sans-serif" font-size="14" lengthAdjust="spacingAndGlyphs" textLength="81">Kubernetes</text><rect width="95" height="30.297" x="204" y="250.961" fill="#FEFECE" filter="url(#f1w9jdsrclng5o)" style="stroke:#a80036;stroke-width:1.5"/><text x="211" y="270.956" fill="#000" font-family="sans-serif" font-size="14" lengthAdjust="spacingAndGlyphs" textLength="81">Kubernetes</text><rect width="103" height="30.297" x="350" y="51" fill="#FEFECE" filter="url(#f1w9jdsrclng5o)" style="stroke:#a80036;stroke-width:1.5"/><text x="357" y="70.995" fill="#000" font-family="sans-serif" font-size="14" lengthAdjust="spacingAndGlyphs" textLength="89">CertManager</text><rect width="103" height="30.297" x="350" y="250.961" fill="#FEFECE" filter="url(#f1w9jdsrclng5o)" style="stroke:#a80036;stroke-width:1.5"/><text x="357" y="270.956" fill="#000" font-family="sans-serif" font-size="14" lengthAdjust="spacingAndGlyphs" textLength="89">CertManager</text><polygon fill="#A80036" points="241.5 113.43 251.5 117.43 241.5 121.43 245.5 117.43" style="stroke:#a80036;stroke-width:1"/><line style="stroke:#a80036;stroke-width:1" x1="32.5" x2="247.5" y1="117.43" y2="117.43"/><text x="39.5" y="112.364" fill="#000" font-family="sans-serif" font-size="13" lengthAdjust="spacingAndGlyphs" textLength="197">creates annotated namespace</text><polygon fill="#A80036" points="241.5 142.563 251.5 146.563 241.5 150.563 245.5 146.563" style="stroke:#a80036;stroke-width:1"/><line style="stroke:#a80036;stroke-width:1" x1="32.5" x2="247.5" y1="146.563" y2="146.563"/><text x="39.5" y="141.497" fill="#000" font-family="sans-serif" font-size="13" lengthAdjust="spacingAndGlyphs" textLength="108">creates webhook</text><polygon fill="#A80036" points="391.5 171.695 401.5 175.695 391.5 179.695 395.5 175.695" style="stroke:#a80036;stroke-width:1"/><line style="stroke:#a80036;stroke-width:1" x1="253.5" x2="397.5" y1="175.695" y2="175.695"/><text x="260.5" y="170.629" fill="#000" font-family="sans-serif" font-size="13" lengthAdjust="spacingAndGlyphs" textLength="49">triggers</text><polygon fill="#A80036" points="264.5 200.828 254.5 204.828 264.5 208.828 260.5 204.828" style="stroke:#a80036;stroke-width:1"/><line style="stroke:#a80036;stroke-width:1" x1="258.5" x2="402.5" y1="204.828" y2="204.828"/><text x="270.5" y="199.762" fill="#000" font-family="sans-serif" font-size="13" lengthAdjust="spacingAndGlyphs" textLength="92">creates secret</text><polygon fill="#A80036" points="264.5 229.961 254.5 233.961 264.5 237.961 260.5 233.961" style="stroke:#a80036;stroke-width:1"/><line style="stroke:#a80036;stroke-width:1" x1="258.5" x2="402.5" y1="233.961" y2="233.961"/><text x="270.5" y="228.895" fill="#000" font-family="sans-serif" font-size="13" lengthAdjust="spacingAndGlyphs" textLength="126">configures webhook</text></g></svg>